<?xml version="1.0" encoding="utf-8"?>
<!-- Svg Vector Icons : http://www.onlinewebfonts.com/icon -->
<!DOCTYPE svg PUBLIC "-//W3C//DTD SVG 1.1//EN" "http://www.w3.org/Graphics/SVG/1.1/DTD/svg11.dtd">
<svg version="1.1" xmlns="http://www.w3.org/2000/svg" xmlns:xlink="http://www.w3.org/1999/xlink" x="0px" y="0px" viewBox="0 0 1000 1000" enable-background="new 0 0 1000 1000" xml:space="preserve">
<metadata> Svg Vector Icons : http://www.onlinewebfonts.com/icon </metadata>
<g><path d="M990,617.7c0-152.6-98.6-211.5-98.6-211.5h-0.2c0.2-31.9-4.1-278.4-190.5-278.4c-199.3,0-312.8,0-398.4,0c-186.4,0-190.7,246.5-190.4,278.4h-0.4c0,0-101.5,16.7-101.5,210.3c0,56.1,12.6,92.7,45,116.5v57.2c0,43.5,38,82,82.8,82h1.4c44.8,0,75.1-38.5,75.1-82v-17.6c69.4,4.8,160,4.8,276.9,4.9v-2.3c0,0,8.7,0,10.2,0c1.6,0,4.5,0,4.5,0v2.3c118.7-0.1,210.5,0,280.7-4.8v17.5c0,43.5,35.4,82,80.2,82h1.4c44.8,0,77.7-38.5,77.7-82v-57.6C977.5,709,990,672.9,990,617.7L990,617.7z M927.4,546.6c0,35.8-29,64.8-64.8,64.8c-35.8,0-64.8-29-64.8-64.8c0-35.8,29-64.8,64.8-64.8C898.4,481.8,927.4,510.8,927.4,546.6z M335.1,179.9c166.5,0,166.5,0,166.5,0s-0.1,0,166.4,0c166.5,0,159.1,217.3,159.1,217.3H176C176,397.2,168.6,179.9,335.1,179.9L335.1,179.9z M133.6,481.8c35.8,0,64.8,29,64.8,64.8c0,35.8-29,64.8-64.8,64.8c-35.8,0-64.8-29-64.8-64.8C68.8,510.8,97.9,481.8,133.6,481.8z M672.6,681.2H354.1c-34.5,0-62.4-27.8-62.4-62.2s27.9-62.2,62.4-62.2h318.5c34.5,0,62.4,27.8,62.4,62.2S707,681.2,672.6,681.2z"/></g>
</svg>