<?xml version="1.0" encoding="utf-8"?>
<!-- Svg Vector Icons : http://www.onlinewebfonts.com/icon -->
<!DOCTYPE svg PUBLIC "-//W3C//DTD SVG 1.1//EN" "http://www.w3.org/Graphics/SVG/1.1/DTD/svg11.dtd">
<svg version="1.1" xmlns="http://www.w3.org/2000/svg" xmlns:xlink="http://www.w3.org/1999/xlink" x="0px" y="0px" viewBox="0 0 1000 1000" enable-background="new 0 0 1000 1000" xml:space="preserve">
<metadata> Svg Vector Icons : http://www.onlinewebfonts.com/icon </metadata>
<g><path d="M768.1,592.4c-8.4-3.9-32.4-8.1-37,0c-47.4,85-143.5,129.4-240.4,129.4s-174.4-44.5-221.9-129.4c-4.6-8.1-28.7-3.9-37,0C1.6,697.6,10,885.9,10,888.3c0,9.8,20.1,55.5,55.5,55.5h869c13.4,0,55.5-29.2,55.5-55.5C990,885.9,998.4,697.6,768.1,592.4z M500,659.7c114,0,212.6-80.8,212.6-215.2V259.6C712.6,145.4,614,56.3,500,56.3c-113.9,0-212.7,89.2-212.7,203.4v184.9C287.4,580.8,386.1,659.7,500,659.7z"/></g>
</svg>